<?xml version="1.0" encoding="utf-8"?>
<!-- Generator: Adobe Illustrator 16.0.0, SVG Export Plug-In . SVG Version: 6.00 Build 0)  -->
<!DOCTYPE svg PUBLIC "-//W3C//DTD SVG 1.1//EN" "http://www.w3.org/Graphics/SVG/1.1/DTD/svg11.dtd">
<svg version="1.1" xmlns="http://www.w3.org/2000/svg" xmlns:xlink="http://www.w3.org/1999/xlink" x="0px" y="0px" width="144px"
	 height="144px" viewBox="0 0 144 144" enable-background="new 0 0 144 144" xml:space="preserve">
<g id="参考线">
</g>
<g id="图层_2">
	<g>
		<path fill="#3F82B2" d="M71.991,91.8c-12.614,0-22.864-8.774-22.864-19.574c0-10.801,10.25-19.575,22.864-19.575
			s22.863,8.774,22.863,19.575C94.854,83.025,84.605,91.8,71.991,91.8L71.991,91.8z M71.991,59.4
			c-8.147,0-14.979,5.85-14.979,12.825c0,6.975,6.833,12.824,14.979,12.824c8.146,0,14.979-5.85,14.979-12.824
			C86.97,65.024,80.138,59.4,71.991,59.4L71.991,59.4z M71.991,59.4"/>
		<path fill="#3F82B2" d="M71.991,117c-30.221,0-56.764-15.075-62.808-35.55c-0.787-2.476,1.052-4.95,3.679-5.4
			c2.891-0.675,5.782,0.9,6.307,3.15c4.994,16.65,27.067,28.8,52.821,28.8c25.49,0,47.827-12.149,52.82-28.8
			c0.789-2.476,3.681-3.825,6.308-3.15c2.89,0.675,4.467,3.15,3.679,5.4C128.754,102.15,102.211,117,71.991,117L71.991,117z
			 M129.805,67.95c-2.366,0-4.467-1.351-4.994-3.376c-5.256-16.425-27.329-28.575-52.557-28.575S24.951,47.925,19.695,64.35
			c-0.788,2.475-3.678,3.825-6.569,3.15c-2.891-0.676-4.468-3.15-3.68-5.624C16.017,41.4,41.77,27,71.991,27
			c30.483,0,56.237,14.4,62.807,35.101c0.788,2.474-0.789,4.948-3.679,5.625C130.593,67.95,130.067,67.95,129.805,67.95
			L129.805,67.95z M129.805,67.95"/>
	</g>
</g>
</svg>
