<?xml version="1.0" encoding="utf-8"?>
<!-- Generator: Adobe Illustrator 16.0.0, SVG Export Plug-In . SVG Version: 6.00 Build 0)  -->
<!DOCTYPE svg PUBLIC "-//W3C//DTD SVG 1.1//EN" "http://www.w3.org/Graphics/SVG/1.1/DTD/svg11.dtd">
<svg version="1.1" xmlns="http://www.w3.org/2000/svg" xmlns:xlink="http://www.w3.org/1999/xlink" x="0px" y="0px" width="144px"
	 height="144px" viewBox="0 0 144 144" enable-background="new 0 0 144 144" xml:space="preserve">
<g id="参考线">
</g>
<g id="_x31_.1">
	<g>
		<path id="叶子-圆角_2_" fill="#3F82B2" d="M48.33,88.183c0,0,0,0,0,0.01v0.049c-0.01,0.03-0.01,0.069-0.01,0.1
			c-0.02,0.079-0.049,0.159-0.069,0.229c-5.309,16.084-20.289,27.813-38.127,28.419C10.042,117,9.973,117,9.893,117
			C9.391,116.95,9,116.522,9,116.015c0-0.06,0.01-0.11,0.02-0.17v-0.009c0.021-0.08,0.04-0.15,0.07-0.229
			c5.308-16.064,20.278-27.782,38.097-28.399h0.01c0.08-0.01,0.151-0.01,0.231,0h0.029C47.94,87.268,48.32,87.685,48.33,88.183z"/>
		<path id="手势-圆角_2_" fill="#3F82B2" d="M135,28.473v0.06c-0.01,0.108-0.021,0.199-0.05,0.287
			c-1.285,8.605-9.863,15.359-20.548,16.105H78.431c-4.275,0.2-8.258,1.402-11.659,3.373c-4.686,2.695-8.268,6.843-10.002,11.737
			v0.011l-0.411,1.352h0.009c0,0.01-0.009,0.01-0.009,0.02c-0.011,0.01-0.011,0.03-0.021,0.04c-0.02,0.06-0.04,0.118-0.05,0.188
			v0.01c-0.011,0.061-0.021,0.11-0.021,0.169c0,0.508,0.392,0.936,0.894,0.984c0.029,0.011,0.07,0.011,0.11,0.011
			c0.02,0,0.05,0,0.07-0.011v0.021h49.174c0.722,0.089,1.293,0.716,1.304,1.452c0,0.01,0,0.01,0,0.02
			c-0.011,0.12-0.03,0.239-0.05,0.349v0.01c-1.254,8.774-9.572,15.607-19.816,16.074H47.488v0.021
			c-0.602-0.041-1.204-0.041-1.816-0.041c-10.134,0-19.474,3.343-26.96,8.973c-0.011,0.01-0.02,0.019-0.03,0.03
			c-0.08,0.05-0.149,0.109-0.23,0.179c0,0-0.01,0-0.02,0.01c-0.141,0.069-0.292,0.109-0.462,0.109c-0.551,0-1.003-0.447-1.003-0.994
			c0-0.06,0.01-0.12,0.02-0.18c0.011-0.069,0.03-0.128,0.051-0.188L21.1,75.243l6.993-23.106l0.482-1.582l0.06-0.199
			c1.445-4.188,3.874-8.007,7.063-11.32c6.461-6.674,16.064-11.191,26.971-12.016C62.749,27,62.82,27,62.899,27h70.796
			C134.428,27.08,135,27.726,135,28.473z"/>
	</g>
</g>
</svg>
