<?xml version="1.0" encoding="utf-8"?>
<!-- Generator: Adobe Illustrator 16.0.0, SVG Export Plug-In . SVG Version: 6.00 Build 0)  -->
<!DOCTYPE svg PUBLIC "-//W3C//DTD SVG 1.1//EN" "http://www.w3.org/Graphics/SVG/1.1/DTD/svg11.dtd">
<svg version="1.1" xmlns="http://www.w3.org/2000/svg" xmlns:xlink="http://www.w3.org/1999/xlink" x="0px" y="0px" width="144px"
	 height="144px" viewBox="0 0 144 144" enable-background="new 0 0 144 144" xml:space="preserve">
<g id="参考线">
</g>
<g id="图层_2">
	<g>
		<g>
			<path fill="#E07F14" d="M31.889,117.483c-0.121,0-0.181,0-0.302-0.06c-0.06,0-0.06,0.06-0.121,0.06H31.889z M26.635,77.194
				c-0.061-4.107,2.355-7.792,6.099-9.422c3.745-1.631,8.092-0.785,10.991,2.054c2.899,2.838,3.805,7.188,2.295,10.993
				c-1.51,3.805-5.194,6.282-9.239,6.282c-2.658,0.06-5.254-0.967-7.187-2.839C27.722,82.449,26.695,79.852,26.635,77.194
				L26.635,77.194z M34.667,43.731c1.027-3.262,3.624-5.799,6.945-6.705c3.826-1.011,7.89,0.317,10.379,3.395
				c2.49,3.077,2.942,7.329,1.156,10.86c-1.812,3.564-5.496,5.739-9.421,5.558c-3.14-0.121-6.039-1.691-7.791-4.29
				C34.123,49.953,33.64,46.691,34.667,43.731L34.667,43.731z M74.403,24.101c4.106-0.061,7.79,2.356,9.421,6.101
				c1.63,3.745,0.785,8.094-2.053,11.054c-2.838,2.899-7.187,3.866-10.991,2.296c-3.804-1.511-6.28-5.195-6.341-9.242
				c-0.06-2.657,0.966-5.255,2.838-7.188C69.209,25.188,71.746,24.101,74.403,24.101L74.403,24.101z M43.182,108.302
				c3.563-6.101,9.3-15.705,23.552-16.248c-0.061,0.362,0.302-3.262,0.302-3.262c2.173-10.208,3.261-15.342,12.078-23.798
				c6.401-6.04,22.163-20.054,33.154-29.657c1.208-1.571,2.114-3.322,2.657-5.255C114.924,16.429,92.399,9,70.9,9
				C36.479,8.879,8.82,37.873,9.001,72.604c0.604,14.557,5.738,28.57,14.735,40.047c1.872,2.597,4.71,4.289,7.851,4.772
				C37.324,117.423,39.739,114.222,43.182,108.302L43.182,108.302z M112.328,84.624c-3.744,9.181-12.863,22.53-27.779,22.53v0.121
				c0,18.242-8.032,24.765-10.084,27.665c1.871,0,11.835-1.269,11.835-1.269c19.325-3.564,33.818-16.49,30.497-33.886
				C115.89,95.014,112.146,85.047,112.328,84.624L112.328,84.624z M129.418,29.96c0,0-35.086,31.047-45.111,40.53
				c-7.669,7.369-7.911,10.751-10.447,22.349c-0.121,0.665,0.121,1.329,0.604,1.751l7.125,5.98c0.302,0.242,0.725,0.423,1.147,0.423
				c0.241,0,0.483-0.061,0.724-0.121c10.689-4.47,14.011-5.316,19.626-14.316c7.489-11.839,31.342-52.369,31.342-52.369
				c0.966-1.389,0.665-3.262-0.604-4.349C132.538,28.757,130.645,28.809,129.418,29.96L129.418,29.96z M76.335,107.516l-8.394-7.55
				c-0.357-0.29-0.808-0.44-1.268-0.423h-0.06c-20.412,0-14.252,25.309-32.67,25.309c-1.813-0.543-3.502-1.329-5.073-2.355
				C34.244,132.765,43.483,135,51.878,135c13.043,0,26.027-8.939,25.122-26.154C77,108.362,76.758,107.879,76.335,107.516"/>
		</g>
	</g>
</g>
</svg>
