<?xml version="1.0" encoding="utf-8"?>
<!-- Generator: Adobe Illustrator 16.0.0, SVG Export Plug-In . SVG Version: 6.00 Build 0)  -->
<!DOCTYPE svg PUBLIC "-//W3C//DTD SVG 1.1//EN" "http://www.w3.org/Graphics/SVG/1.1/DTD/svg11.dtd">
<svg version="1.1" xmlns="http://www.w3.org/2000/svg" xmlns:xlink="http://www.w3.org/1999/xlink" x="0px" y="0px" width="144px"
	 height="144px" viewBox="0 0 144 144" enable-background="new 0 0 144 144" xml:space="preserve">
<g id="参考线">
</g>
<g id="图层_2">
	<g>
		<path fill="#E07F14" d="M62.659,127.27c-1.197,0-2.527-0.659-3.564-1.758c-0.891-0.941-1.454-2.11-1.557-3.213
			c-0.054-0.478,0.011-0.962,0.188-1.404l0.256-0.235l16.409-16.088c0.186-0.176,0.356-0.365,0.519-0.561
			c0.315-0.14,0.655-0.207,0.997-0.196c1.196,0,2.527,0.651,3.565,1.75c0.889,0.942,1.452,2.119,1.556,3.218
			c0.045,0.471,0.033,1.354-0.537,1.907l-16.409,16.083C63.66,127.184,63.078,127.27,62.659,127.27L62.659,127.27z M46.95,109.798
			c0.085-0.075,0.171-0.149,0.248-0.228l16.417-16.087c0.186-0.173,0.352-0.361,0.516-0.549c0.315-0.145,0.656-0.215,1-0.208
			c1.196,0,2.527,0.651,3.558,1.75c1.508,1.601,1.867,3.532,1.367,4.63c-0.086,0.075-0.17,0.152-0.252,0.231l-16.409,16.084
			c-0.18,0.176-0.353,0.362-0.516,0.557c-0.315,0.143-0.656,0.213-1,0.208c-1.193,0-2.527-0.659-3.561-1.758
			c-1.509-1.597-1.868-3.527-1.364-4.63H46.95z M36.173,98.717l0.248-0.235l16.421-16.08c0.181-0.176,0.348-0.365,0.511-0.557
			c0.316-0.143,0.657-0.213,1.001-0.208c1.193,0,2.527,0.656,3.562,1.754c0.889,0.941,1.456,2.115,1.556,3.217
			c0.055,0.481-0.013,0.97-0.192,1.417l-0.248,0.228l-16.417,16.083c-0.178,0.174-0.349,0.358-0.512,0.549
			c-0.315,0.143-0.656,0.213-1,0.208c-1.197,0-2.527-0.651-3.561-1.75c-1.505-1.597-1.868-3.523-1.372-4.629L36.173,98.717z
			 M25.205,89.041c-0.041-0.471-0.03-1.353,0.533-1.911l16.416-16.079c0.4-0.345,0.905-0.522,1.42-0.498
			c1.197,0,2.527,0.655,3.565,1.753c0.889,0.942,1.456,2.115,1.557,3.217c0.054,0.48-0.011,0.968-0.189,1.413
			c-0.085,0.071-0.171,0.149-0.252,0.228L31.837,93.247c-0.178,0.176-0.349,0.361-0.511,0.553c-1.156,0.538-3.188-0.09-4.563-1.542
			c-0.889-0.942-1.456-2.119-1.556-3.218H25.205z M83.656,20.733c4.417-3.426,12.637-6.066,21.078-4.234
			c8.561,1.856,15.854,7.965,21.03,17.57c0.396,0.82,9.213,19.556-8.004,38.021c-9.361-9.625-24.614-25.033-24.8-25.226
			l-2.435-2.452l-2.375,2.503c-4.606,4.846-12.444,12.207-15.461,13.388c-12.859,5.05-20.037-1.896-22.746-5.533
			c8.098-8.91,25.399-27.607,33.704-34.042L83.656,20.733z M122.5,77c20.789-22.134,9.413-45.791,9.238-46.136
			c-7.853-14.564-18.255-19.516-25.604-21.109c-11.239-2.429-21.337,1.437-26.57,5.485c-2.323,1.805-5.259,4.45-8.468,7.538
			c-4.209-4.136-14.704-12.819-28.142-12.218c-4.688,0.196-20.752,2.276-30.779,20.941c-0.131,0.287-12.444,28.211,12.321,47.3
			l-3.436,3.363c-1.908,1.868-2.85,4.61-2.579,7.525c0.245,2.66,1.46,5.266,3.409,7.337c2.057,2.186,4.702,3.539,7.396,3.817
			c0.249,2.551,1.387,5.152,3.384,7.275c2.053,2.178,4.699,3.531,7.393,3.811c0.249,2.55,1.387,5.155,3.384,7.274
			c2.05,2.173,4.688,3.527,7.375,3.81c0.259,2.641,1.467,5.218,3.405,7.274c2.315,2.461,5.392,3.873,8.431,3.873
			c2.338,0,4.502-0.859,6.1-2.417l0.719-0.706c3.554,3.037,6.841,3.963,9.524,3.963v-0.005c1.89,0,3.483-0.458,4.646-0.953
			c4.943-2.103,6.478-7.729,6.641-12.344c3.499-0.475,6.271-1.884,8.264-4.198c1.964-2.276,2.725-4.937,2.983-7.09
			c3.487-0.255,6.315-1.519,8.435-3.779c2.416-2.574,3.313-5.847,3.603-8.507c3.313-0.282,6.678-2.361,8.956-5.061
			c4.291-5.082,4.34-11.473,0.126-15.899c-0.053-0.057-0.106-0.113-0.159-0.169L122.5,77z M122.5,77"/>
	</g>
</g>
</svg>
