<?xml version="1.0" encoding="utf-8"?>
<!-- Generator: Adobe Illustrator 16.0.0, SVG Export Plug-In . SVG Version: 6.00 Build 0)  -->
<!DOCTYPE svg PUBLIC "-//W3C//DTD SVG 1.1//EN" "http://www.w3.org/Graphics/SVG/1.1/DTD/svg11.dtd">
<svg version="1.1" xmlns="http://www.w3.org/2000/svg" xmlns:xlink="http://www.w3.org/1999/xlink" x="0px" y="0px" width="144px"
	 height="144px" viewBox="0 0 144 144" enable-background="new 0 0 144 144" xml:space="preserve">
<g id="参考线">
</g>
<g id="图层_2">
	<g>
		<g>
			<path fill="#3F82B2" d="M66.696,135c6.152,0,57.795-15.813,57.795-19.53S84.246,36.279,84.246,36.279l31.167-22.302
				c0,0,7.261-4.977-7.262-4.977H25.845c-14.525,0-9.684,4.977-9.684,4.977l32.984,22.365c0,0-40.145,74.971-40.145,79.191
				C8.899,119.628,60.643,135,66.696,135L66.696,135z M122.373,89.199l10.995-8.631c2.017-1.765,2.219-4.158,0.302-5.985
				L92.92,37.665L122.373,89.199z M122.373,89.199"/>
		</g>
	</g>
</g>
</svg>
