<?xml version="1.0" encoding="utf-8"?>
<!-- Generator: Adobe Illustrator 16.0.0, SVG Export Plug-In . SVG Version: 6.00 Build 0)  -->
<!DOCTYPE svg PUBLIC "-//W3C//DTD SVG 1.1//EN" "http://www.w3.org/Graphics/SVG/1.1/DTD/svg11.dtd">
<svg version="1.1" xmlns="http://www.w3.org/2000/svg" xmlns:xlink="http://www.w3.org/1999/xlink" x="0px" y="0px" width="144px"
	 height="144px" viewBox="0 0 144 144" enable-background="new 0 0 144 144" xml:space="preserve">
<g id="参考线">
</g>
<g id="图层_2">
	<g>
		<g>
			<path fill="#3F82B2" d="M98.115,34.124C91.103,29.544,81.755,27,71.899,27c-9.958,0-19.306,2.544-26.216,7.124
				C38.671,38.64,34.81,44.682,34.81,51.106s3.861,12.466,10.771,16.982c1.932,1.272,4.065,2.354,6.3,3.308
				c-7.621,1.654-16.359,4.389-23.878,9.095C15.401,88.377,9,99.509,9,113.565c0,1.717,2.236,3.116,4.979,3.116
				c2.743,0,4.979-1.399,4.979-3.116c0-15.965,8.941-27.223,26.317-33.456c13.21-4.771,26.726-4.771,26.93-4.771
				c0.507,0,1.015-0.063,1.421-0.127c9.248-0.254,17.986-2.735,24.591-7.061c6.909-4.579,10.771-10.558,10.771-16.981
				C108.886,44.682,105.127,38.64,98.115,34.124L98.115,34.124z M71.899,68.979c-14.937,0-27.131-8.014-27.131-17.873
				s12.194-17.873,27.131-17.873c14.937,0,27.029,8.014,27.029,17.873S86.835,68.979,71.899,68.979L71.899,68.979z M112.645,77.628
				c-2.337-0.89-5.385-0.381-6.807,1.082c-1.423,1.463-0.611,3.371,1.727,4.261c0,0,4.064,1.654,8.23,5.852
				c4.166,4.325,9.246,12.212,9.246,25.06c0,1.717,2.236,3.117,4.979,3.117c2.744,0,4.979-1.399,4.979-3.117
				C135,86.151,113.56,78.011,112.645,77.628L112.645,77.628z M112.645,77.628"/>
		</g>
	</g>
</g>
</svg>
