<?xml version="1.0" encoding="utf-8"?>
<!-- Generator: Adobe Illustrator 16.0.0, SVG Export Plug-In . SVG Version: 6.00 Build 0)  -->
<!DOCTYPE svg PUBLIC "-//W3C//DTD SVG 1.1//EN" "http://www.w3.org/Graphics/SVG/1.1/DTD/svg11.dtd">
<svg version="1.1" xmlns="http://www.w3.org/2000/svg" xmlns:xlink="http://www.w3.org/1999/xlink" x="0px" y="0px" width="144px"
	 height="144px" viewBox="0 0 144 144" enable-background="new 0 0 144 144" xml:space="preserve">
<g id="参考线">
</g>
<g id="图层_2">
	<path fill="#3F82B2" d="M40.5,19.5C46.292,19.5,51,24.208,51,30c0,5.791-4.708,10.5-10.5,10.5C34.704,40.493,30.007,35.796,30,30
		C30,24.208,34.708,19.5,40.5,19.5 M40.5,51c11.584,0,21-9.417,21-21c0-11.58-9.416-21-21-21c-11.583,0-21,9.421-21,21
		C19.5,41.583,28.917,51,40.5,51 M108.75,61.5H93c-1.395,0-2.73,0.55-3.712,1.537L72,80.329L54.713,63.037
		c-0.984-0.986-2.32-1.539-3.713-1.537H35.25C20.759,61.516,9.016,73.259,9,87.75v31.5h15.75V135h10.5v-26.25H19.5v-21
		c0.012-8.694,7.057-15.738,15.75-15.75h13.574L72,95.171L95.171,72h13.579c8.693,0.011,15.738,7.056,15.75,15.75v21h-15.75V135
		h10.5v-15.75H135v-31.5C134.984,73.259,123.241,61.516,108.75,61.5 M103.5,19.5c5.792,0,10.5,4.708,10.5,10.5
		c0,5.791-4.709,10.5-10.5,10.5C97.704,40.493,93.007,35.796,93,30C93,24.208,97.708,19.5,103.5,19.5 M103.5,51
		c11.583,0,21-9.417,21-21c0-11.58-9.417-21-21-21s-21,9.421-21,21C82.5,41.583,91.917,51,103.5,51"/>
</g>
</svg>
