<?xml version="1.0" encoding="utf-8"?>
<!-- Generator: Adobe Illustrator 16.0.0, SVG Export Plug-In . SVG Version: 6.00 Build 0)  -->
<!DOCTYPE svg PUBLIC "-//W3C//DTD SVG 1.1//EN" "http://www.w3.org/Graphics/SVG/1.1/DTD/svg11.dtd">
<svg version="1.1" xmlns="http://www.w3.org/2000/svg" xmlns:xlink="http://www.w3.org/1999/xlink" x="0px" y="0px" width="144px"
	 height="144px" viewBox="0 0 144 144" enable-background="new 0 0 144 144" xml:space="preserve">
<g id="参考线">
</g>
<g id="图层_2">
	<g>
		<path fill="#3F82B2" d="M109.809,27c1.213,0,2.425,0.043,3.646,0.136c3.813,0.275,6.729,2.784,6.725,5.786V98.19
			c0.002,3.128-3.156,5.695-7.143,5.805c-7.19,0.21-13.286,0.963-18.271,2.267c-6.536,1.71-12.899,4.823-19.058,9.325V42.599
			c4.552-6.132,10.907-10.529,19.058-13.19c4.761-1.583,9.879-2.401,15.049-2.409H109.809z M127.59,99.561V40.005
			c1.966-0.001,3.852,0.61,5.242,1.7c1.39,1.09,2.171,2.569,2.168,4.111v59.092c0,4.619-3.677,12.091-14.82,11.338
			c-7.852-0.524-8.355-0.741-14.978-0.648c-6.474,0.086-15.554-0.093-23.673,1.401c4.544-2.977,11.198-5.076,15.593-5.811
			c4.387-0.741,9.875-1.063,16.333-1.248c8.19-0.234,14.135-5.063,14.135-10.375V99.561z M34.192,27
			c5.126,0,10.135,0.803,15.041,2.402c8.151,2.662,14.506,7.059,19.057,13.191v72.994c-6.158-4.509-12.513-7.615-19.057-9.325
			c-4.985-1.297-11.072-2.057-18.27-2.26c-3.984-0.116-7.137-2.684-7.134-5.811V32.916c0-2.995,2.913-5.502,6.725-5.78
			C31.763,27.044,32.978,26.999,34.192,27L34.192,27z M16.41,99.561c0,4.792,4.512,10.097,14.286,10.375
			c6.458,0.185,10.498,0.741,16.191,1.248c5.686,0.5,11.167,2.84,15.711,5.811c-8.119-1.495-16.514-1.408-23.798-1.402
			c-5.733,0-6.733,0.648-14.97,0.648C14.111,116.24,9,109.342,9,104.902V45.81c0-3.211,3.315-5.811,7.41-5.811v59.568V99.561z
			 M16.41,99.561"/>
	</g>
</g>
</svg>
